<?xml version="1.0" encoding="utf-8"?>
<!-- Generator: Adobe Illustrator 12.0.0, SVG Export Plug-In  -->
<!DOCTYPE svg PUBLIC "-//W3C//DTD SVG 1.1//EN" "http://www.w3.org/Graphics/SVG/1.1/DTD/svg11.dtd" [
	<!ENTITY ns_flows "http://ns.adobe.com/Flows/1.0/">
	<!ENTITY ns_svg "http://www.w3.org/2000/svg">
	<!ENTITY ns_xlink "http://www.w3.org/1999/xlink">
]>
<svg  version="1.1" xmlns="&ns_svg;" xmlns:xlink="&ns_xlink;" xmlns:a="http://ns.adobe.com/AdobeSVGViewerExtensions/3.0/"
	 width="50" height="50" viewBox="-2.596 -2.468 50 50" enable-background="new -2.596 -2.468 50 50" xml:space="preserve">
<defs>
</defs>
<g>
	<path fill-rule="evenodd" clip-rule="evenodd" fill="#6DBAC6" d="M44.943,35.064c0,5.5-4.5,10-10,10H10c-5.5,0-10-4.5-10-10V10
		C0,4.5,4.5,0,10,0h24.943c5.5,0,10,4.5,10,10V35.064z"/>
</g>
<path display="none" fill-rule="evenodd" clip-rule="evenodd" fill="#FFFFFF" d="M38.012,20.384
	c-0.392,0.684-1.16,0.992-2.306,0.923c-1.406,5.667-4.949,9.196-8.303,12.915c2.103,2.203,5.166,3.445,5.535,7.38
	c-4.465-4.997-13.393-4.698-15.682,1.845c-1.866-1.824-4.305-3.076-5.074-5.996c3.472-2.063,6.774-4.295,12.914-3.689
	c2.372-2.856,3.787-6.668,5.074-10.609c-6.061,0.552-13.619,3.599-20.756,4.613c0-3.383,0-6.765,0-10.148
	c6.852,0.836,13.975,1.4,21.217,1.845C30.621,9.21,19.073,7.417,12.645,13.927c-0.755-3.089-3.213-4.475-3.69-7.841
	c10.432-7.577,29.863-3.902,27.213,13.375C36.236,20.315,37.729,19.745,38.012,20.384z"/>
<path display="none" fill-rule="evenodd" clip-rule="evenodd" fill="#FFFFFF" d="M36.551,17.802
	c-2.895-0.951-6.055-1.634-8.766-2.768c0.768-1.231,1.424-2.575,1.846-4.151c-0.355-3.943-5.92-4.638-9.686-3.69
	c0.075,4.842-0.998,8.535-0.923,13.376c2.892,0.271,7.326-1.894,11.531-1.845c-0.111,3.033,0.813,5.03,0.461,8.303
	c-4.109-0.656-8.215-1.316-11.992-2.307c-1.446,2.243-0.704,6.676-1.384,9.687c1.817,1.872,6.383,0.996,8.764,2.306
	c-1.068,2.469-2.621,4.451-3.691,6.919c-2.307-1.369-4.8-3.354-7.38-5.073c-2.229-1.486-5.863-2.586-5.995-5.074
	c2.069,0.391,3.932,0.987,6.457,0.923c-0.247-3.444-1.249-6.131-1.384-9.687c-0.245-1.292-2.223-0.853-3.229-1.383
	c-0.168-1.552,1.999-0.769,2.768-1.384c-1.074-3.845-1.343-8.497-2.307-12.454c-3.041,0.188-4.437,2.021-7.38,2.307
	C7.438,7.371,34.926-5.756,37.934,7.192C38.883,11.279,37.244,14.334,36.551,17.802z"/>
<path display="none" fill-rule="evenodd" clip-rule="evenodd" fill="#FFFFFF" d="M9.035,3.219c2.921,0,5.842,0,8.763,0
	c-0.185,6.272,0.443,13.358-0.461,18.911c2.653,2.852,8.206,4.936,11.07,2.307c4.514-4.144,0.193-13.243-4.151-15.683
	c2.146-2.313,5.265-3.652,8.302-5.073c6.941,4.601,6.757,21-2.306,23.063c1.519,3.261,4.493,4.045,4.612,7.841
	c0.322,10.302-16.374,9.195-25.83,6.919C14.567,31.118,9.042,16.292,9.035,3.219z M17.337,34.584c3.863,0.77,11.074,2.862,14.299,0
	c0.463-3.538-0.896-5.255-2.307-6.919c-5.877,0.803-8.416-1.731-11.992-3.229C17.337,27.819,17.337,31.201,17.337,34.584z"/>
<path display="none" fill-rule="evenodd" clip-rule="evenodd" fill="#FFFFFF" d="M22.5,1.742c0.785-0.17,0.87,0.36,0.922,0.922
	c-4.104,5.275-6.757,12-7.38,20.756c3.732,1.649,8.819,1.942,13.376,2.768c-3.769,1.458-8.741,1.714-12.915,2.767
	c0.081,8.703,9.311,11.533,16.605,7.842c-1.615,3.882-6.62,5.953-10.609,5.996c-7.102,0.076-12.378-5.781-12.915-12.453
	c-1.6-0.371-1.772,0.686-3.229,0.461c0-2.922,0-5.843,0-8.764c1.055,0.482,2.782,0.293,3.69,0.922
	C11.357,13.047,17.002,7.469,22.5,1.742z"/>
<path display="none" fill-rule="evenodd" clip-rule="evenodd" fill="#FFFFFF" d="M25.268,13.273
	c5.061,2.473,9.292,5.775,13.836,8.764c-1.189,2.655-2.313,5.374-4.612,6.918C31.831,23.314,27.929,18.915,25.268,13.273z"/>
<path display="none" fill-rule="evenodd" clip-rule="evenodd" fill="#FFFFFF" d="M19.618,1.941c3.059,1.092,4.781,3.521,7.841,4.612
	c0.218,1.449-1.241,1.219-1.384,2.306c3.991,5.542,8.096,10.969,12.453,16.143c-1.594,1.635-2.767,3.691-4.612,5.075
	c-8.258,0.197-16.212,0.699-24.907,0.46c0-2.459,0-4.919,0-7.378c0.615,0,1.23,0,1.845,0C13.571,15.883,16.854,9.171,19.618,1.941z
	 M18.234,17.163c-1.849,2.052-4.278,4.168-4.612,6.458c6.189-0.498,12.107,1.727,17.527,0.461c-2.713-4.052-4.302-9.228-7.38-12.915
	C22.238,13.15,20.106,15.085,18.234,17.163z"/>
<path display="none" fill-rule="evenodd" clip-rule="evenodd" fill="#FFFFFF" d="M9.471,34.228
	c9.611,0.845,18.662,2.248,28.136,3.229c-1.444,1.848-4.29,1.49-6.458,1.846c-6.122,1-14.25,2.239-20.755,3.689
	C8.615,41.542,9.826,37.102,9.471,34.228z"/>
<path display="none" fill-rule="evenodd" clip-rule="evenodd" fill="#FFFFFF" d="M39.323,12.266
	c-3.48,7.436-6.805,15.028-10.609,22.14c-0.317,1.24,0.953,0.892,1.384,1.384c-1.479,3.132-4.055,5.17-5.535,8.303
	c-4.827-2.883-9.019-7.594-13.375-11.531c-1.109-1.002-3.648-1.885-3.229-3.69c6.4,1.441,12.049,3.634,17.989,5.535
	c2.68-5.313,3.161-12.829,5.072-18.911c-6.497-2.42-13.186-4.648-20.294-6.458c0.142-3.148,5.549-4.862,7.38-7.841
	C25.832,4.232,32.062,8.765,39.323,12.266z"/>
<path display="none" fill-rule="evenodd" clip-rule="evenodd" fill="#FFFFFF" d="M24.563,26.565
	c-4.292,0.598-7.682-3.692-11.992-4.613c0.565-2.663,3.64-2.818,4.612-5.073C20.799,18.952,21.535,23.904,24.563,26.565z"/>
<path display="none" fill-rule="evenodd" clip-rule="evenodd" fill="#FFFFFF" d="M17.551,1.79c3.47-0.088,5.958,0.807,9.687,0.461
	c-0.496,3.963-1.928,6.99-2.768,10.608c3.803,1.118,8.686,1.154,13.375,1.384c-1.047,1.745-3.674,1.389-5.533,1.845
	c-2.074,0.507-3.971,1.424-5.998,1.383c-4.333,5.199-7.215,11.849-11.069,17.527c3.52,1.246,9.801-0.271,13.375,0.924
	c1.127-1.382-1.24-4.504,0-5.997c3.73,2.266,5.572,6.421,8.764,9.225c-1.986,1.858-4.535,3.152-7.379,4.151
	c0.26-2.105-0.818-2.873-0.463-5.073c-6.635,1.358-12.144,3.845-18.91,5.073c-0.841-2.543-1.545-5.221-1.845-8.303
	c0.922,0,1.845,0,2.767,0c1.528-4.93,3.14-9.775,4.612-14.76c-3.188,0.041-5.37,1.087-8.302,1.383
	c-0.053-3.329-0.763-6.001-0.462-9.686c4.263,0.196,8.191,0.726,12.454,0.922C19.541,8.718,18.126,5.674,17.551,1.79z"/>
<path display="none" fill-rule="evenodd" clip-rule="evenodd" fill="#FFFFFF" d="M15.536,1.217c3.844,0,7.688,0,11.532,0
	c-0.309,4.304-0.656,8.569-1.385,12.453c3.4,0.018,5.826-0.938,9.225-0.922c-0.801,2.428-0.545,5.912-1.383,8.302
	c-2.592-0.483-5.367-0.783-7.842-1.383c-0.791,1.36-0.977,3.327-0.922,5.535c3.496,1.424,8.77,1.07,12.914,1.845
	c-3.656,2.031-9.152,2.226-13.836,3.228c0.135,2.486-0.571,5.121-0.923,7.842c-0.263,2.033,0.679,5.049-1.384,5.997
	c-0.463-4.456-1.085-8.755-1.845-12.915c-4.64,0.895-9.608,1.462-13.837,2.768c-1.083-2.525-1.072-8.361-0.923-10.609
	c4.272,0.803,8.869,1.279,13.838,1.385c-0.17-2.137-0.326-4.287-0.922-5.997c-2.887-1.418-8.336-0.273-10.148-2.768
	c3.438-0.098,5.996-1.077,9.687-0.922C16.97,10.238,16.044,5.936,15.536,1.217z"/>
<path display="none" fill-rule="evenodd" clip-rule="evenodd" fill="#FFFFFF" d="M10.298,3.302c2.922,0,5.843,0,8.764,0
	c0.008,5.373-0.176,10.939,0.462,15.682c2.708,1.443,5.512,2.792,7.841,4.613c0-6.765,0-13.53,0-20.295
	c3.321-0.093,5.442,1.016,8.764,0.922c-0.995,8.23-2.871,15.579-4.612,23.062c-5.613,0.848-6.977-2.556-11.531-2.768
	c-1.207,3.826,0.659,8.561,0,13.377c1.817,1.127,4.165,1.537,6.457,2.307c2.078,0.697,4.766,1.151,5.996,2.766
	c-7.473-0.674-15.598-0.698-23.523-0.922c0.147-2.621,0.887-4.648,1.384-6.918c1.714,0.285,2.899,1.098,4.612,1.383
	c-0.57-3.428-1.146-6.848-1.383-10.607c-2.031-0.033-1.835,2.161-3.69,2.306c-1.852-1.991-4.115-3.572-6.458-5.074
	c1.973-2.332,5.311-3.3,8.764-4.152C11.964,13.321,10.283,9.159,10.298,3.302z"/>
<path display="none" fill-rule="evenodd" clip-rule="evenodd" fill="#FFFFFF" d="M28.141,2.636c3.382,0,6.765,0,10.147,0
	c-1.105,4.276-2.305,8.458-3.691,12.454c-2.201-0.356-2.969,0.722-5.072,0.461c-0.727,7.56-0.679,23.908-5.074,26.751
	c-4.81,3.112-12.197-1.653-15.682-5.072c2.833,1.01,5.369,2.318,9.687,1.845c4.055-4.708,3.045-14.481,3.228-23.063
	c-1.854-1.068-5.682-0.159-8.302-0.46c-0.994,3.982,0.871,8.918,0.461,13.837c-2.093-1.559-2.552-5.785-3.229-8.764
	c-0.755-3.322-1.399-6.835-1.845-10.146c6.663-0.256,12.676-1.161,19.373-1.384C28.141,6.94,28.141,4.788,28.141,2.636z"/>
<path display="none" fill-rule="evenodd" clip-rule="evenodd" fill="#FFFFFF" d="M8.585,1.969c3.276,0.415,7.212,0.169,10.147,0.922
	c-0.293,7.24-1.129,13.938-1.845,20.756c4.03-0.891,7.542-2.298,12.915-1.845c4.294,3.393,6.28,9.094,8.303,14.76
	c-2.876,1.274-5.406,2.896-8.764,3.689c-2.185-6.556-1.838-17.663-11.992-14.761c-1.911,5.162-0.831,13.316-2.768,18.451
	c-2.178-1.451-1.86-6.055-2.307-9.686c-1.156-9.431-2.324-20.88-3.69-30.904C8.585,2.891,8.585,2.43,8.585,1.969z"/>
<path display="none" fill-rule="evenodd" clip-rule="evenodd" fill="#FFFFFF" d="M29.803,1.969c2.685,2.235,5.777,4.063,7.841,6.918
	c-4.246,1.904-6.954,5.345-11.992,6.457C24.885,10.534,29.1,6.835,29.803,1.969z"/>
<path fill-rule="evenodd" clip-rule="evenodd" fill="#FFFFFF" d="M6.478,3.224c3.115,0.729,7.386,0.302,10.609,0.922
	c1.883-0.14,0.246,0.963,0.461,1.845c9.34,0.807,18.299,1.996,21.679,8.764c0.294,6.446-0.864,12.228-2.306,17.528
	c-0.865,3.179-1.614,7.12-4.151,8.763c0.444-7.549,2.087-13.902,1.845-22.14c-3.022-4.204-10.909-3.543-17.989-3.689
	c-0.613,1.999-0.777,4.449-0.922,6.918c5.023,1.126,10.792,1.508,16.144,2.306c-1.611,1.88-5.11,2.165-7.842,2.768
	c-3.043,0.672-6.148,0.938-8.763,1.845c-2.26,2.969-0.209,10.246-3.229,12.454C10.365,28.55,7.965,16.344,6.478,3.224z"/>
</svg>
