<?xml version="1.0" encoding="utf-8"?>
<!-- Generator: Adobe Illustrator 12.0.0, SVG Export Plug-In  -->
<!DOCTYPE svg PUBLIC "-//W3C//DTD SVG 1.1//EN" "http://www.w3.org/Graphics/SVG/1.1/DTD/svg11.dtd" [
	<!ENTITY ns_flows "http://ns.adobe.com/Flows/1.0/">
	<!ENTITY ns_svg "http://www.w3.org/2000/svg">
	<!ENTITY ns_xlink "http://www.w3.org/1999/xlink">
]>
<svg  version="1.1" xmlns="&ns_svg;" xmlns:xlink="&ns_xlink;" xmlns:a="http://ns.adobe.com/AdobeSVGViewerExtensions/3.0/"
	 width="50" height="50" viewBox="-2.596 -2.468 50 50" enable-background="new -2.596 -2.468 50 50" xml:space="preserve">
<defs>
</defs>
<g>
	<path fill-rule="evenodd" clip-rule="evenodd" fill="#6DBAC6" d="M44.943,35.064c0,5.5-4.5,10-10,10H10c-5.5,0-10-4.5-10-10V10
		C0,4.5,4.5,0,10,0h24.943c5.5,0,10,4.5,10,10V35.064z"/>
</g>
<path fill-rule="evenodd" clip-rule="evenodd" fill="#FFFFFF" d="M19.618,1.941c3.059,1.092,4.781,3.521,7.841,4.612
	c0.218,1.449-1.241,1.219-1.384,2.306c3.991,5.542,8.096,10.969,12.453,16.143c-1.594,1.635-2.767,3.691-4.612,5.075
	c-8.258,0.197-16.212,0.699-24.907,0.46c0-2.459,0-4.919,0-7.378c0.615,0,1.23,0,1.845,0C13.571,15.883,16.854,9.171,19.618,1.941z
	 M18.234,17.163c-1.849,2.052-4.278,4.168-4.612,6.458c6.189-0.498,12.107,1.727,17.527,0.461c-2.713-4.052-4.302-9.228-7.38-12.915
	C22.238,13.15,20.106,15.085,18.234,17.163z"/>
<path fill-rule="evenodd" clip-rule="evenodd" fill="#FFFFFF" d="M9.471,34.228c9.611,0.845,18.662,2.248,28.136,3.229
	c-1.444,1.848-4.29,1.49-6.458,1.846c-6.122,1-14.25,2.239-20.755,3.689C8.615,41.542,9.826,37.102,9.471,34.228z"/>
</svg>
