<?xml version="1.0" encoding="utf-8"?>
<!-- Generator: Adobe Illustrator 12.0.0, SVG Export Plug-In  -->
<!DOCTYPE svg PUBLIC "-//W3C//DTD SVG 1.1//EN" "http://www.w3.org/Graphics/SVG/1.1/DTD/svg11.dtd" [
	<!ENTITY ns_flows "http://ns.adobe.com/Flows/1.0/">
	<!ENTITY ns_svg "http://www.w3.org/2000/svg">
	<!ENTITY ns_xlink "http://www.w3.org/1999/xlink">
]>
<svg  version="1.1" xmlns="&ns_svg;" xmlns:xlink="&ns_xlink;" xmlns:a="http://ns.adobe.com/AdobeSVGViewerExtensions/3.0/"
	 width="50" height="50" viewBox="-2.596 -2.468 50 50" enable-background="new -2.596 -2.468 50 50" xml:space="preserve">
<defs>
</defs>
<g>
	<path fill-rule="evenodd" clip-rule="evenodd" fill="#6DBAC6" d="M44.943,35.064c0,5.5-4.5,10-10,10H10c-5.5,0-10-4.5-10-10V10
		C0,4.5,4.5,0,10,0h24.943c5.5,0,10,4.5,10,10V35.064z"/>
</g>
<path display="none" fill-rule="evenodd" clip-rule="evenodd" fill="#FFFFFF" d="M9.035,3.219c2.921,0,5.842,0,8.763,0
	c-0.185,6.272,0.443,13.358-0.461,18.911c2.653,2.852,8.206,4.936,11.07,2.307c4.514-4.144,0.193-13.243-4.151-15.683
	c2.146-2.313,5.265-3.652,8.302-5.073c6.941,4.601,6.757,21-2.306,23.063c1.519,3.261,4.493,4.045,4.612,7.841
	c0.322,10.302-16.374,9.195-25.83,6.919C14.567,31.118,9.042,16.292,9.035,3.219z M17.337,34.584c3.863,0.77,11.074,2.862,14.299,0
	c0.463-3.538-0.896-5.255-2.307-6.919c-5.877,0.803-8.416-1.731-11.992-3.229C17.337,27.819,17.337,31.201,17.337,34.584z"/>
<path fill-rule="evenodd" clip-rule="evenodd" fill="#FFFFFF" d="M22.5,1.742c0.785-0.17,0.87,0.36,0.922,0.922
	c-4.104,5.275-6.757,12-7.38,20.756c3.732,1.649,8.819,1.942,13.376,2.768c-3.769,1.458-8.741,1.714-12.915,2.767
	c0.081,8.703,9.311,11.533,16.605,7.842c-1.615,3.882-6.62,5.953-10.609,5.996c-7.102,0.076-12.378-5.781-12.915-12.453
	c-1.6-0.371-1.772,0.686-3.229,0.461c0-2.922,0-5.843,0-8.764c1.055,0.482,2.782,0.293,3.69,0.922
	C11.357,13.047,17.002,7.469,22.5,1.742z"/>
<path fill-rule="evenodd" clip-rule="evenodd" fill="#FFFFFF" d="M25.268,13.273c5.061,2.473,9.292,5.775,13.836,8.764
	c-1.189,2.655-2.313,5.374-4.612,6.918C31.831,23.314,27.929,18.915,25.268,13.273z"/>
<path display="none" fill-rule="evenodd" clip-rule="evenodd" fill="#FFFFFF" d="M19.618,1.941c3.059,1.092,4.781,3.521,7.841,4.612
	c0.218,1.449-1.241,1.219-1.384,2.306c3.991,5.542,8.096,10.969,12.453,16.143c-1.594,1.635-2.767,3.691-4.612,5.075
	c-8.258,0.197-16.212,0.699-24.907,0.46c0-2.459,0-4.919,0-7.378c0.615,0,1.23,0,1.845,0C13.571,15.883,16.854,9.171,19.618,1.941z
	 M18.234,17.163c-1.849,2.052-4.278,4.168-4.612,6.458c6.189-0.498,12.107,1.727,17.527,0.461c-2.713-4.052-4.302-9.228-7.38-12.915
	C22.238,13.15,20.106,15.085,18.234,17.163z"/>
<path display="none" fill-rule="evenodd" clip-rule="evenodd" fill="#FFFFFF" d="M9.471,34.228
	c9.611,0.845,18.662,2.248,28.136,3.229c-1.444,1.848-4.29,1.49-6.458,1.846c-6.122,1-14.25,2.239-20.755,3.689
	C8.615,41.542,9.826,37.102,9.471,34.228z"/>
</svg>
